<?xml version="1.0" encoding="utf-8"?>
<!-- Generator: Adobe Illustrator 26.5.0, SVG Export Plug-In . SVG Version: 6.00 Build 0)  -->
<svg version="1.0" id="katman_1" xmlns="http://www.w3.org/2000/svg" xmlns:xlink="http://www.w3.org/1999/xlink" x="0px" y="0px"
	 viewBox="0 0 638 481" style="enable-background:new 0 0 638 481;" xml:space="preserve">
<g>
	<path d="M246.06,271.81l-27.04-63.72c-0.38-1.34-2.09-1.91-3.24-1.91h-0.76c-1.33,0-2.86,0.96-3.43,2.11l-27.23,63.53
		c-0.19,0.19-0.19,0.38-0.19,0.57c0,0.57,0.57,1.15,1.14,1.15h7.62c0.57,0,1.14-0.57,1.33-0.96c0-0.19,5.33-12.82,5.33-12.82h31.42
		l5.33,13.01c0,0,0.38,1.15,1.71,1.15h6.86c0.76,0,1.52-0.77,1.52-1.53C246.25,272.19,246.06,271.81,246.06,271.81L246.06,271.81z
		 M202.64,251.33l12.57-30.24l12.38,30.24H202.64L202.64,251.33z M372.69,249.61c0-12.06-7.81-20.09-19.04-20.09
		c-6.47,0-11.04,2.68-13.71,6.32V207.7c0-0.57-0.57-0.96-0.95-0.96h-7.05c-0.57,0-0.95,0.38-1.14,0.96v64.87
		c0,0.57,0.38,0.96,0.95,0.96h7.24c0.57,0,0.95-0.38,0.95-0.96v-22.39c0-5.93,4.19-12.06,12-12.06c6.86,0,11.43,5.17,11.43,13.01
		v21.62c0,0.57,0.38,0.96,0.95,0.96h7.24c0.57,0,0.95-0.38,0.95-0.96L372.69,249.61L372.69,249.61z M389.45,209.62
		c-3.62,0-6.47,2.49-6.47,6.32c0,3.83,2.86,6.32,6.47,6.32c3.81,0,6.66-2.68,6.66-6.32C396.11,212.3,393.26,209.42,389.45,209.62z
		 M486.19,251.33v-1.53c0-0.77-0.19-1.34-0.19-1.72c-1.33-10.91-9.14-18.37-20.38-18.37c-12.95,0-21.9,9.76-21.9,22.39
		c0,12.82,9.71,22.39,23.04,22.39c8.38,0,13.33-2.68,16.38-5.17c0,0,0.76-0.57,0.19-1.34l-3.05-5.17c-0.19-0.38-0.95-0.38-1.52,0
		c-2.28,1.72-5.71,3.83-11.04,3.83c-8,0-13.71-4.98-15.04-11.86h32.75c0.57,0,0.76-0.38,0.76-0.96V251.33L486.19,251.33z
		 M452.67,248.08c1.33-6.7,6.28-10.91,12.95-10.91c6.09,0,11.04,4.4,11.43,10.91H452.67z M279,229.71c0,0-1.71-0.19-2.67-0.19
		c-7.62,0-12.76,4.21-14.47,9.19l-0.38-7.46c0-0.57-0.57-0.96-1.14-0.96h-5.71c-0.57,0-1.14,0.57-1.14,1.15v40.95
		c0,0.57,0.57,1.15,1.14,1.15h7.24c0.57,0,1.14-0.38,1.14-0.96v-21.82c0-6.12,4.19-12.06,12.19-12.06c1.33,0,3.05,0.38,3.05,0.38
		c0.57,0,0.95-0.19,1.14-0.77l0.57-7.27C279.95,230.09,279.57,229.71,279,229.71L279,229.71z M316.9,263.2
		c0.38-0.19,0.76,0,0.95,0.38l3.05,5.74c0.19,0.38,0,0.77-0.38,0.96c-2.86,1.91-7.05,4.02-14.28,4.02
		c-13.71,0-23.23-9.76-23.23-22.2c0-12.82,10.09-22.39,23.23-22.39c7.43,0,11.81,2.3,14.66,4.21c0.19,0.19,0.57,0.38,0.19,0.96
		l-3.24,5.74c-0.19,0.38-0.57,0.38-0.95,0.19c-2.29-1.34-5.33-2.68-9.52-2.68c-8.76,0-14.85,5.93-14.85,13.97
		c0,7.85,5.9,13.78,14.47,13.78C311.56,265.88,314.42,264.54,316.9,263.2L316.9,263.2z M393.26,230.48h-7.24
		c-0.57,0-0.95,0.38-0.95,0.96v40.95c0,0.57,0.38,0.96,0.95,0.96h7.24c0.57,0,0.95-0.38,0.95-0.96v-40.95
		C394.21,230.86,393.83,230.48,393.26,230.48z M437.25,263.96c-0.19-0.19-0.95-0.19-1.71,0.19c-1.52,0.77-3.43,1.72-6.67,1.72
		c-5.33,0-8.57-2.3-8.57-8.04v-19.71h16c0.57,0,0.95-0.38,0.95-0.96v-5.74c0-0.57-0.38-0.96-0.95-0.96h-16V216.7
		c0-0.57-0.38-0.96-0.95-0.96h-7.05c-0.57,0-0.95,0.38-0.95,0.96v13.78h-8c-0.57,0-0.95,0.38-0.95,0.96v5.74
		c0,0.57,0.38,0.96,0.95,0.96h7.81v20.28c0,10.14,6.47,15.88,16,15.88c6.66,0,10.66-2.3,12.57-3.64c0.38-0.38,0.57-0.77,0.38-1.15
		L437.25,263.96L437.25,263.96z M525.79,263.39c0.38-0.19,0.76,0,0.95,0.38l3.05,5.74c0.19,0.38,0,0.77-0.38,0.96
		c-2.86,1.91-7.05,4.02-14.28,4.02c-13.71,0-23.23-9.76-23.23-22.2c0-12.82,10.09-22.39,23.23-22.39c7.43,0,11.81,2.3,14.66,4.21
		c0.19,0.19,0.57,0.38,0.19,0.96l-3.24,5.74c-0.19,0.38-0.57,0.38-0.95,0.19c-2.28-1.34-5.33-2.68-9.52-2.68
		c-8.76,0-14.85,5.93-14.85,13.97c0,7.85,5.9,13.78,14.47,13.78C520.46,265.88,523.51,264.73,525.79,263.39z M572.07,264.16
		c-0.19-0.19-0.95-0.19-1.71,0.19c-1.52,0.77-3.43,1.72-6.66,1.72c-5.33,0-8.57-2.3-8.57-8.04v-19.71h16c0.57,0,0.95-0.38,0.95-0.96
		v-5.74c0-0.57-0.38-0.96-0.95-0.96h-16v-13.78c0-0.57-0.38-0.96-0.95-0.96h-7.05c-0.57,0-0.95,0.38-0.95,0.96v13.78h-8
		c-0.57,0-0.95,0.38-0.95,0.96v5.74c0,0.57,0.38,0.96,0.95,0.96h7.81v20.28c0,10.14,6.47,15.88,16,15.88
		c6.66,0,10.66-2.3,12.57-3.64c0.38-0.38,0.57-0.77,0.38-1.15L572.07,264.16L572.07,264.16z"/>
	<path d="M106.22,232.01c2.02-2.89,6.26-2.94,8.35-0.15l0.11,0.15l21.76,31.23c0.01,0.01,0.02,0.02,0.03,0.02l0.02,0l0,0l0.01-0.01
		c0.01-0.01,0.02-0.01,0.03-0.01l0.02,0l0,0l0.01,0.01l7.05,9.62c0.37,0.51,0.32,1.22-0.13,1.66c-8.54,8.28-20.19,13.38-33.03,13.38
		c-12.84,0-24.49-5.1-33.03-13.38c-0.43-0.41-0.5-1.07-0.19-1.57l0.06-0.09l7.05-9.62c0.01-0.01,0.02-0.02,0.03-0.02l0.02,0l0,0
		l0.01,0.01c0.01,0.01,0.02,0.01,0.03,0.01l0.02,0l0,0l0.01-0.01L106.22,232.01z M110.45,193c26.21,0,47.45,21.24,47.45,47.45
		c0,8.83-2.41,17.1-6.62,24.18c-0.44,0.74-1.45,0.81-2.01,0.18l-0.06-0.08l-6.9-9.05c-0.29-0.38-0.34-0.89-0.15-1.33
		c1.87-4.26,2.91-8.96,2.91-13.91c0-19.11-15.5-34.61-34.61-34.61c-19.11,0-34.61,15.5-34.61,34.61c0,4.95,1.04,9.65,2.91,13.91
		c0.18,0.41,0.15,0.87-0.09,1.24l-0.06,0.09l-6.9,9.05c-0.54,0.71-1.62,0.67-2.08-0.1c-4.2-7.08-6.62-15.35-6.62-24.18
		C63,214.24,84.24,193,110.45,193z"/>
</g>
</svg>
